HIERARCHY
ROOT pelvis
{
	OFFSET 0.000000 0.000000 0.000000
	CHANNELS 6 Xposition Yposition Zposition Zrotation Xrotation Yrotation
	JOINT lfemur
	{
		OFFSET 11.446000 0.000000 0.000000
		CHANNELS 3 Zrotation Xrotation Yrotation
		JOINT ltibia
		{
			OFFSET 0.000000 -42.030400 0.000000
			CHANNELS 3 Zrotation Xrotation Yrotation
			JOINT lfoot
			{
				OFFSET 0.000000 -39.930200 0.000000
				CHANNELS 3 Zrotation Xrotation Yrotation
				JOINT ltoes
				{
					OFFSET 0.000000 0.000000 11.775800
					CHANNELS 3 Zrotation Xrotation Yrotation
					End Site
					{
					    OFFSET 0.000000 0.000000 5.000000
					}
				}
			}
		}
	}
	JOINT rfemur
	{
		OFFSET -11.446000 0.000000 0.000000
		CHANNELS 3 Zrotation Xrotation Yrotation
		JOINT rtibia
		{
			OFFSET 0.000000 -42.030400 0.000000
			CHANNELS 3 Zrotation Xrotation Yrotation
			JOINT rfoot
			{
				OFFSET 0.000000 -39.930200 0.000000
				CHANNELS 3 Zrotation Xrotation Yrotation
				JOINT rtoes
				{
					OFFSET 0.000000 0.000000 11.775800
					CHANNELS 3 Zrotation Xrotation Yrotation
					End Site
					{
					    OFFSET 0.000000 0.000000 5.000000
					}
				}
			}
		}
	}
	JOINT thorax
	{
		OFFSET 0.000000 11.255600 -5.000000
		CHANNELS 3 Zrotation Xrotation Yrotation
		JOINT head
		{
			OFFSET 0.000000 43.799300 0.000000
			CHANNELS 3 Zrotation Xrotation Yrotation
			End Site
			{
			    OFFSET 0.000000 5.000000 0.000000
			}
		}
		JOINT lclavicle
		{
			OFFSET 0.000000 39.863000 0.000000
			CHANNELS 3 Zrotation Xrotation Yrotation
			JOINT lhumerus
			{
				OFFSET 17.380600 4.958300 0.000000
				CHANNELS 3 Zrotation Xrotation Yrotation
				JOINT lradius
				{
					OFFSET 0.000000 -27.561300 0.000000
					CHANNELS 3 Zrotation Xrotation Yrotation
					JOINT lhand
					{
						OFFSET 0.000000 -26.933000 0.000000
						CHANNELS 3 Zrotation Xrotation Yrotation
						End Site
						{
						    OFFSET 0.000000 -5.000000 0.000000
						}
					}
				}
			}
		}
		JOINT rclavicle
		{
			OFFSET 0.000000 39.863000 0.000000
			CHANNELS 3 Zrotation Xrotation Yrotation
			JOINT rhumerus
			{
				OFFSET -17.380600 4.958300 0.000000
				CHANNELS 3 Zrotation Xrotation Yrotation
				JOINT rradius
				{
					OFFSET 0.000000 -27.561300 0.000000
					CHANNELS 3 Zrotation Xrotation Yrotation
					JOINT rhand
					{
						OFFSET 0.000000 -26.933000 0.000000
						CHANNELS 3 Zrotation Xrotation Yrotation
						End Site
						{
						    OFFSET 0.000000 -5.000000 0.000000
						}
					}
				}
			}
		}
	}
}
MOTION
Frames:	14
Frame Time:	0.0333333
90.7785 84.0373 -171.794 0.57092 2.97797 -7.76716 11.2404 -28.3793 7.1297 5.02245 80.9329 -4.83349 0.974659 1.10465 2.53746 3.4936e-015 -5 3.59179e-015 13.2545 1.26533 1.548 -0.235349 35.6349 -0.139638 -8.90649 -7.51772 -6.27383 -4.67135e-016 -5 -7.98176e-016 6.57773 7.99193 4.01504 0.767722 -14.5057 -6.90337 -2.5842e-015 0 -0 9.51159 9.10755 -45.945 95.0178 -52.2919 71.088 -0.651862 3.17386 23.2279 -2.5842e-015 0 -0 -13.2571 4.5114 41.2713 -96.9144 -52.0412 -72.7301 0.0510532 0.908728 -6.47127 
90.1291 85.91 -162.799 1.35355 3.98876 -8.4811 10.3982 -32.0495 6.23168 1.63706 68.448 -1.59802 0.446259 2.75583 6.74613 2.60533e-015 -5 -8.97948e-016 10.9749 6.79092 1.51115 -0.177496 31.6275 0.435567 -8.15273 0.926004 -0.973164 -5.26788e-016 -5 7.98176e-016 6.92279 6.1046 5.09949 -0.264575 -13.8862 -6.18056 -1.59028e-015 1.59028e-015 7.95139e-016 8.0035 12.9353 -43.8631 96.2568 -52.132 72.1617 -0.626093 3.11336 22.758 -1.59028e-015 1.59028e-015 7.95139e-016 -15.2915 5.2092 43.9478 -99.5724 -51.6281 -75.0255 0.0354148 0.758142 -5.39362 
89.4926 87.4579 -153.081 2.98005 4.55783 -9.97657 8.51297 -32.4535 3.09973 0.600572 51.7922 -0.743576 0.0927626 6.13094 7.01273 -2.47985e-015 -5 1.19726e-015 7.24751 12.5723 2.44347 -0.119506 26.8296 0.923168 -7.42114 11.3649 3.4232 -1.5558e-015 -5 -1.74601e-016 6.02571 3.76715 6.91658 -0.874554 -12.4512 -6.11289 2.93207e-015 -7.95139e-016 -0 7.09539 17.8285 -42.0102 98.6809 -51.7743 74.2579 -0.551993 2.93071 21.3516 2.93207e-015 -7.95139e-016 -0 -17.3042 6.55004 46.8332 -101.75 -51.2336 -76.8998 0.0278842 0.673344 -4.78768 
88.7722 87.9938 -143.497 4.35666 5.23372 -11.6291 6.77375 -31.6802 -6.42943 0.215225 34.591 -0.487192 -0.754116 13.9772 5.64903 -2.10715e-015 -5 3.1927e-015 4.16154 15.9973 5.4491 -0.0984986 25.4268 0.06816 -2.57884 23.2102 3.72219 -2.26088e-016 -5 -2.59407e-015 5.29032 1.98688 8.57815 -1.19015 -11.5409 -6.43316 1.54058e-015 0 -0 7.18202 21.6743 -40.8328 102.427 -51.0991 77.4831 -0.500221 2.79489 20.3146 1.54058e-015 0 -0 -18.8021 8.34629 48.828 -103.617 -50.8536 -78.502 0.0152703 0.50125 -3.55947 
87.6892 87.4686 -134.746 4.79271 5.51216 -12.1664 8.06368 -30.9089 -13.3987 0.085342 21.5059 -0.397212 -0.0488255 17.7258 0.634615 3.41917e-015 -5 -6.38541e-015 4.18919 17.3717 9.49472 -0.148765 30.2232 0.0819956 -1.20295 27.5592 0.537363 -7.77747e-016 -5 1.99544e-016 4.63584 2.61274 9.06629 -1.18001 -13.359 -7.84364 -3.47873e-016 -1.59028e-015 3.97569e-016 8.98292 22.2017 -40.5241 106.106 -50.2827 80.6299 -0.417916 2.56188 18.5523 -3.47873e-016 -1.59028e-015 3.97569e-016 -19.1961 8.40923 48.9856 -105.77 -50.3653 -80.3419 0.0164033 0.519337 -3.68856 
86.4533 85.7905 -126.161 5.0493 4.95341 -14.0655 10.1512 -30.2096 -12.7027 0.0684232 18.3821 -0.39599 1.14934 19.4995 -4.10737 -2.22646e-015 -5 6.38541e-015 4.79587 16.6201 12.8686 -0.321784 41.4774 0.338912 1.6029 23.8717 -5.264 -3.00002e-016 -5 -3.44213e-015 3.82138 3.71283 9.77402 0.948973 -14.1907 -6.37295 2.98177e-016 1.59028e-015 1.59028e-015 11.4539 21.5374 -39.7016 108.67 -49.6172 82.8088 -0.321936 2.25613 16.2683 2.98177e-016 1.59028e-015 1.59028e-015 -18.6478 7.96513 48.4424 -105.3 -50.4767 -79.9405 0.02536 0.643934 -4.57744 
85.4545 83.128 -117.891 6.56431 2.88832 -15.3597 9.05048 -30.606 -10.5106 0.110401 27.8065 1.1406 1.03331 10.3432 -7.27709 -5.16876e-016 -5 3.1927e-015 4.54732 14.2441 13.2896 -0.843662 57.9259 0.907212 1.6438 17.0504 -6.44283 8.46769e-016 -5 5.92396e-016 0.796823 6.10289 8.92918 2.21779 -15.1479 -7.70721 3.97569e-016 1.59028e-015 -7.95139e-016 14.6604 19.7557 -38.7844 110.49 -49.0939 84.3469 -0.274368 2.08626 15.0113 3.97569e-016 1.59028e-015 -7.95139e-016 -16.1337 7.77346 46.1974 -103.306 -50.9196 -78.2349 0.0219641 0.599282 -4.25866 
84.4586 80.1371 -109.983 7.62587 0.354785 -16.4856 7.47314 -28.4297 -9.01677 0.251873 37.7294 0.470127 -1.64329 -5.11984 -13.9627 -1.17279e-015 -5 -3.1927e-015 4.17658 10.1227 11.7928 -2.72984 75.1156 2.8568 0.880292 10.4314 -5.39739 8.56009e-016 -5 6.98404e-016 -1.54703 9.81551 7.35739 3.0825 -16.5901 -7.90755 3.57812e-015 1.59028e-015 -1.59028e-015 17.0242 15.7615 -37.3997 111.127 -48.9005 84.8828 -0.333814 2.29628 16.5661 3.57812e-015 1.59028e-015 -1.59028e-015 -13.0366 6.96576 42.7332 -99.7263 -51.6018 -75.1585 0.0117342 0.441059 -3.1303 
83.2883 78.3441 -102.682 13.1278 -1.44443 -17.2676 1.10616 -23.9054 -6.47113 0.304612 40.3888 -0.208783 -3.12641 -12.8672 -10.8669 5.40702e-015 -5 -6.38541e-015 -2.00184 1.40483 7.97974 -142.087 88.4604 142.279 -0.213651 3.70108 -2.38198 2.60871e-017 -5 2.99316e-016 -9.9091 10.5869 5.3627 6.03736 -17.4356 -9.39723 -1.59028e-015 -1.59028e-015 1.59028e-015 21.4458 10.6615 -36.4306 109.637 -49.345 83.6262 -0.412864 2.54679 18.439 -1.59028e-015 -1.59028e-015 1.59028e-015 -7.08064 8.23766 38.6988 -95.7959 -52.1933 -71.7626 0.0106819 0.421839 -2.99394 
81.2986 77.3028 -96.288 12.7874 0.0179124 -18.7908 1.77561 -21.4107 -7.27788 0.361162 43.7325 -0.888274 -4.67961 -19.5812 -8.15182 -2.50454e-015 -5 -1.27708e-014 -1.85126 -11.0742 3.54426 -174.763 77.7986 175.082 -0.373015 -0.483637 -1.74347 -3.13708e-015 -5 4.9886e-016 -8.42508 10.8757 1.51629 6.05014 -18.3268 -8.74386 7.95139e-016 1.59028e-015 3.18055e-015 21.9107 5.41765 -34.1515 110.324 -49.1442 84.2057 -0.394282 2.49042 18.0162 7.95139e-016 1.59028e-015 3.18055e-015 -5.66702 10.9845 37.6776 -98.7048 -51.7707 -74.2782 0.0549767 0.943119 -6.71726 
78.8228 77.345 -89.8761 13.4324 0.327786 -21.798 1.05266 -15.7833 -6.66367 0.359067 43.5585 0.280585 -1.34054 -23.4667 -3.16207 -5.96354e-016 -5 -0 -2.95523 -23.3583 0.340338 -175.983 73.1652 176.286 -0.671378 -3.88927 -0.362393 -0 -5 -0 -8.94628 11.6639 -0.980011 6.57923 -19.924 -8.5676 -1.59028e-015 -3.18055e-015 -0 22.9413 1.28473 -32.3755 114.009 -47.9546 87.2979 -0.490008 2.76712 20.1035 -1.59028e-015 -3.18055e-015 -0 -5.55342 13.8581 39.4717 -104.331 -50.6969 -79.1138 0.137112 1.48246 -10.6008 
75.3596 78.883 -82.8671 13.543 0.156426 -26.389 0.318101 -7.40924 -6.95982 0.289301 40.1824 0.72505 0.40623 -20.1656 2.38178 7.95139e-016 -5 -0 -2.36947 -33.8177 -0.301564 -175.152 76.7811 175.37 -0.90141 -5.38564 1.98431 2.90229e-015 -5 -3.1927e-015 -8.9242 11.7079 -3.04859 7.56271 -20.1235 -6.96166 -7.95139e-016 -1.59028e-015 -3.18055e-015 23.2426 0.60934 -31.7817 117.912 -46.4749 90.5317 -0.718756 3.32525 24.4079 -7.95139e-016 -1.59028e-015 -3.18055e-015 -7.2114 16.4145 42.6933 -107.182 -50.0139 -81.5457 0.0933383 1.22576 -8.74703 
71.1077 81.1491 -76.2368 13.9959 1.04311 -29.6479 0.527358 -2.60787 -5.67633 0.250282 38.1133 0.78096 -0.709151 -10.5929 -0.768176 2.78262e-016 -5 3.1927e-015 -0.773558 -42.3108 -0.438302 -162.331 86.8294 162.492 -0.892264 -4.9899 1.46136 -3.18055e-015 -5 -0 -8.79686 10.4774 -7.53316 8.64532 -19.893 -4.89999 -3.18055e-015 1.59028e-015 9.54166e-015 23.5837 2.11363 -31.9356 120.109 -45.5334 92.3295 -0.717003 3.32134 24.3769 -3.18055e-015 1.59028e-015 9.54166e-015 -8.83355 18.6773 45.9323 -108.037 -49.7899 -82.2719 0.0451816 0.856091 -6.09267 
66.0556 83.5488 -68.6525 13.6989 1.26346 -34.1169 0.733337 2.48037 -5.34645 0.1941 35.5254 1.51539 -0.865512 5.01982 -5.94896 -0 -5 -0 1.93166 -45.4201 1.38227 -3.3608 77.4588 3.55462 -0.907288 -4.23011 0.37733 5.60562e-015 -5 9.57811e-015 -8.37732 10.8691 -6.02438 8.05387 -20.872 -6.82912 -0 0 9.54166e-015 23.6274 1.23166 -35.028 120.192 -45.496 92.3976 -0.747841 3.38848 24.9044 -0 0 9.54166e-015 -8.19882 20.4058 43.431 -106.729 -50.129 -81.16 0.0365143 0.770522 -5.48076 
